<svg aria-hidden="true" style="position: absolute; width: 0; height: 0; overflow: hidden;" version="1.1" xmlns="http://www.w3.org/2000/svg" xmlns:xlink="http://www.w3.org/1999/xlink">
<defs>
<symbol id="icon-img-0" viewBox="0 0 38 32">
<path d="M0 0h38.4v32h-38.4v-32z"></path>
</symbol>
<symbol id="icon-img-1" viewBox="0 0 38 32">
<path d="M0 0h38.4v32h-38.4v-32z"></path>
</symbol>
<symbol id="icon-img-2" viewBox="0 0 38 32">
<path d="M0 0h38.4v32h-38.4v-32z"></path>
</symbol>
<symbol id="icon-img-3" viewBox="0 0 38 32">
<path d="M0 0h38.4v32h-38.4v-32z"></path>
</symbol>
<symbol id="icon-img-4" viewBox="0 0 38 32">
<path d="M0 0h38.4v32h-38.4v-32z"></path>
</symbol>
<symbol id="icon-img-5" viewBox="0 0 38 32">
<path d="M0 0h38.4v32h-38.4v-32z"></path>
</symbol>
<symbol id="icon-img-11" viewBox="0 0 33 32">
<path d="M0 0h32.492v32h-32.492v-32z"></path>
</symbol>
<symbol id="icon-img-12" viewBox="0 0 33 32">
<path d="M0 0h32.492v32h-32.492v-32z"></path>
</symbol>
<symbol id="icon-img-13" viewBox="0 0 33 32">
<path d="M0 0h32.492v32h-32.492v-32z"></path>
</symbol>
<symbol id="icon-img-14" viewBox="0 0 33 32">
<path d="M0 0h32.492v32h-32.492v-32z"></path>
</symbol>
</defs>
</svg>
